<svg version="1" xmlns="http://www.w3.org/2000/svg" width="1365.333" height="1365.333" viewBox="0 0 1024.000000 1024.000000"><path d="M481.5 262.5c-45.8 5.6-83.4 22.5-111.1 50-19.4 19.1-29.7 38.2-34.1 63-1.1 6.3-1.4 12.3-1 20 3.1 63.4 61.1 106.1 171.4 126 40.2 7.2 82.9 21.3 106.8 35.2 26.3 15.2 42 33.4 47.6 55.1 2.8 10.7 2.8 27.8-.1 38.6-16.9 65.1-114.6 104.7-202.4 82-36.1-9.3-71.6-26.7-104.6-51.2-6.3-4.7-13.2-9.2-15.3-9.9-5.3-1.9-10.7-.1-15.2 4.9-3.1 3.4-3.5 4.4-3.5 9.6 0 7.6 2 10.6 11.7 17.9 42.3 31.9 87.5 53.2 131.9 62.2 53.1 10.8 106.9 3.7 152.4-20.2 30.1-15.7 54.7-39.4 67.6-64.9 12.6-24.8 15.3-54.3 7.4-80.4-14.2-47.2-63.3-82.1-143.8-102.3-8.7-2.2-23.4-5.4-32.7-7.1-48.5-8.9-83.7-21-109.2-37.6-10.4-6.7-22.9-18.6-28.3-26.9-14.3-21.9-13.6-50.8 1.7-75.4 6-9.7 20.5-24.2 30.8-31 37.8-24.8 92.7-33.9 138.5-22.9 26 6.2 50.2 17.6 86.4 40.6 12.1 7.8 15.8 9.6 19.5 9.9 9.2.8 16.1-5.7 16.1-15.2 0-7.3-2.7-10.8-14-18.3-40.1-26.5-73.5-41.9-105.5-48.8-20-4.3-48.1-5.5-69-2.9z"/></svg>