<?xml version="1.0" standalone="no"?>
<!DOCTYPE svg PUBLIC "-//W3C//DTD SVG 20010904//EN"
 "http://www.w3.org/TR/2001/REC-SVG-20010904/DTD/svg10.dtd">
<svg version="1.0" xmlns="http://www.w3.org/2000/svg"
 width="1024.000000pt" height="1024.000000pt" viewBox="0 0 1024.000000 1024.000000"
 preserveAspectRatio="xMidYMid meet">
<metadata>
Created by potrace 1.11, written by Peter Selinger 2001-2013
</metadata>
<g transform="translate(0.000000,1024.000000) scale(0.100000,-0.100000)"
fill="#000000" stroke="none">
<path d="M4918 9145 c-2 -2 -51 -6 -109 -9 -59 -4 -115 -8 -125 -10 -11 -2
-48 -7 -84 -11 -54 -5 -136 -20 -385 -71 -16 -3 -93 -25 -170 -48 -5 -1 -29
-8 -53 -15 -38 -11 -177 -62 -257 -94 -73 -30 -298 -144 -375 -190 -273 -164
-509 -373 -683 -605 -42 -57 -77 -104 -77 -106 0 -2 -18 -34 -40 -70 -119
-196 -205 -454 -227 -681 -9 -87 -9 -261 -1 -340 43 -405 269 -798 623 -1084
39 -31 72 -58 75 -61 10 -11 236 -158 300 -195 235 -136 595 -282 951 -385
117 -34 394 -105 454 -116 11 -2 76 -15 145 -29 69 -14 145 -28 170 -31 25 -3
61 -9 80 -14 19 -5 51 -11 71 -14 20 -3 42 -8 50 -10 8 -3 26 -8 42 -11 64
-12 91 -18 262 -61 402 -101 743 -220 1035 -362 648 -315 975 -744 970 -1272
-1 -52 -2 -108 -4 -125 -12 -117 -55 -284 -96 -372 -16 -35 -30 -66 -30 -68 0
-2 -22 -43 -49 -90 -248 -431 -786 -797 -1406 -956 -44 -12 -88 -23 -98 -25
-10 -2 -26 -5 -35 -8 -9 -3 -30 -8 -47 -11 -16 -2 -41 -7 -55 -10 -43 -9 -222
-34 -300 -42 -98 -10 -565 -10 -655 0 -73 9 -242 33 -285 42 -300 58 -603 156
-920 297 -61 27 -273 134 -340 171 -30 17 -64 35 -75 41 -98 54 -459 288 -520
338 -111 92 -207 160 -241 172 -55 19 -140 13 -189 -12 -137 -70 -180 -256
-88 -379 41 -56 312 -259 545 -407 249 -159 631 -360 848 -446 29 -12 72 -29
94 -40 66 -29 391 -136 516 -169 179 -47 402 -91 540 -106 30 -3 66 -8 80 -10
142 -24 556 -24 775 -1 81 9 145 18 190 26 28 5 66 11 85 14 131 19 515 124
625 171 17 7 60 24 97 39 108 41 309 142 433 217 113 68 280 181 300 203 6 6
33 28 60 50 84 65 297 287 371 387 269 362 395 729 388 1132 -1 67 -4 140 -8
162 -3 22 -8 58 -12 80 -29 212 -152 510 -288 698 -106 148 -249 299 -392 413
-71 56 -261 185 -324 220 -19 10 -42 24 -50 30 -29 23 -317 163 -437 213 -256
107 -672 240 -943 301 -19 4 -57 13 -85 19 -27 6 -59 13 -70 16 -11 3 -31 7
-45 10 -30 6 -181 37 -195 40 -5 1 -32 5 -60 9 -143 22 -451 91 -673 152 -158
43 -460 144 -532 177 -19 9 -64 28 -100 43 -387 159 -737 432 -893 695 -34 58
-93 196 -103 241 -10 43 -12 56 -19 98 -4 25 -9 54 -11 65 -6 29 -5 206 1 251
60 419 342 801 784 1062 86 50 329 167 370 178 9 2 69 22 134 45 113 39 325
91 417 104 25 3 52 8 60 10 8 2 39 7 69 10 30 4 62 8 71 10 113 22 558 22 671
0 10 -2 39 -7 66 -11 26 -3 57 -8 68 -10 11 -3 36 -7 55 -10 120 -18 404 -103
550 -164 41 -17 89 -36 105 -42 17 -6 113 -53 215 -104 195 -98 371 -200 610
-354 265 -171 274 -175 350 -173 221 5 326 277 168 430 -55 53 -456 309 -656
419 -34 19 -79 44 -100 56 -232 132 -615 291 -870 362 -114 32 -351 82 -427
91 -33 4 -71 9 -85 11 -88 13 -532 28 -542 19z"/>
</g>
</svg>
